<svg width="573" height="430" viewBox="0 0 573 430" fill="none" xmlns="http://www.w3.org/2000/svg">
<path d="M137.108 133.719C152.698 133.719 165.336 121.081 165.336 105.491C165.336 89.9006 152.698 77.2625 137.108 77.2625C121.518 77.2625 108.88 89.9006 108.88 105.491C108.88 121.081 121.518 133.719 137.108 133.719Z" fill="white"/>
<path d="M137.108 134.434C131.383 134.437 125.786 132.742 121.024 129.563C116.262 126.384 112.551 121.865 110.358 116.577C108.165 111.288 107.59 105.468 108.705 99.8528C109.82 94.2374 112.575 89.0789 116.623 85.0297C120.67 80.9805 125.827 78.2225 131.442 77.1046C137.057 75.9866 142.877 76.559 148.166 78.7492C153.456 80.9394 157.977 84.6491 161.158 89.4091C164.339 94.1691 166.037 99.7655 166.037 105.491C166.029 113.162 162.979 120.517 157.556 125.943C152.133 131.369 144.779 134.422 137.108 134.434ZM137.108 77.9917C131.665 77.9888 126.344 79.6004 121.817 82.6225C117.29 85.6446 113.762 89.9415 111.677 94.9694C109.593 99.9974 109.047 105.531 110.108 110.869C111.17 116.207 113.79 121.111 117.639 124.96C121.487 128.808 126.391 131.429 131.73 132.49C137.068 133.551 142.601 133.005 147.629 130.921C152.657 128.837 156.954 125.308 159.976 120.781C162.998 116.255 164.61 110.933 164.607 105.491C164.595 98.2009 161.695 91.213 156.54 86.0584C151.385 80.9039 144.398 78.003 137.108 77.9917Z" fill="#D1D3D4"/>
<path d="M334.791 163.92L428.328 196.682L379.207 209.28L321.664 180.837L334.791 163.92Z" fill="#231F20"/>
<path d="M379.25 209.909C379.161 209.931 379.068 209.931 378.978 209.909L321.435 181.467C321.35 181.425 321.275 181.365 321.215 181.291C321.156 181.216 321.114 181.13 321.092 181.038C321.071 180.946 321.071 180.852 321.091 180.76C321.11 180.669 321.15 180.583 321.206 180.508L334.291 163.52C334.374 163.416 334.487 163.34 334.615 163.302C334.743 163.263 334.879 163.265 335.006 163.306L428.542 196.067C428.67 196.113 428.779 196.199 428.854 196.312C428.929 196.426 428.965 196.56 428.957 196.696C428.951 196.83 428.902 196.958 428.817 197.061C428.732 197.164 428.615 197.237 428.485 197.268L379.364 209.881L379.25 209.909ZM322.636 180.68L379.25 208.608L426.125 196.582L335.02 164.664L322.636 180.68Z" fill="#231F20"/>
<path d="M225.21 272.915C225.21 272.915 175.618 287.944 150.922 272.915C150.922 272.915 169.798 296.481 195.481 293.85C221.163 291.219 225.21 272.915 225.21 272.915Z" fill="#D1D3D4"/>
<path d="M242.499 259.888C242.499 259.888 204.704 296.51 161.79 286.872C102.202 273.573 56.299 202.716 96.196 113.842C96.196 113.842 54.7261 174.073 76.1761 241.255C105.577 333.218 176.591 329.414 248.891 310.638" fill="#D1D3D4"/>
<path d="M345.259 94.4367C345.259 94.4367 334.462 143.586 334.791 163.92C334.791 164.921 338.009 167.424 338.08 168.21C339.639 186.357 281.109 171.07 281.109 171.07C281.109 171.07 278.935 132.589 283.297 118.818C287.658 105.047 292.335 102.03 292.335 102.03C292.335 102.03 331.488 86.6432 338.366 88.8025C345.245 90.9618 345.259 94.4367 345.259 94.4367Z" fill="#898989"/>
<path d="M324.252 115.415L398.712 76.3615L392.778 57.2281L313.155 97.5827L324.252 115.415Z" fill="#898989"/>
<path d="M218.132 273.473C218.132 273.473 217.031 281.438 223.409 297.439C229.787 313.441 236.064 318.446 236.064 318.446L258.744 315.586L236.508 259.816L218.132 273.473Z" fill="#231F20"/>
<path d="M236.064 319.075C235.924 319.076 235.789 319.031 235.678 318.947C235.42 318.732 229.186 313.641 222.808 297.668C216.43 281.695 217.445 273.716 217.488 273.358C217.5 273.275 217.53 273.196 217.574 273.124C217.618 273.053 217.677 272.991 217.746 272.944L236.121 259.359C236.197 259.301 236.286 259.261 236.381 259.244C236.475 259.227 236.572 259.232 236.664 259.258C236.758 259.282 236.845 259.329 236.917 259.393C236.99 259.458 237.045 259.539 237.079 259.63L259.316 315.4C259.357 315.487 259.379 315.583 259.379 315.679C259.379 315.776 259.357 315.871 259.316 315.958C259.267 316.039 259.2 316.109 259.121 316.161C259.042 316.213 258.952 316.246 258.858 316.258L236.178 319.047L236.064 319.075ZM218.732 273.816C218.618 275.246 218.375 283.139 223.995 297.196C229.614 311.253 235.177 316.802 236.264 317.788L257.857 315.143L236.25 260.874L218.732 273.816Z" fill="#231F20"/>
<path d="M331.002 310.638C331.002 310.638 324.681 328.842 304.461 345.917C284.241 362.991 233.318 373.087 233.318 373.087L261.232 314.728L331.002 310.638Z" fill="white"/>
<path d="M233.39 373.73C233.282 373.731 233.176 373.706 233.079 373.659C232.983 373.612 232.898 373.543 232.832 373.458C232.749 373.352 232.698 373.225 232.682 373.091C232.667 372.958 232.689 372.822 232.746 372.7L260.56 314.356C260.616 314.242 260.7 314.145 260.806 314.075C260.912 314.004 261.034 313.963 261.161 313.956L330.93 309.923C331.049 309.914 331.168 309.935 331.275 309.985C331.383 310.035 331.476 310.113 331.545 310.209C331.615 310.302 331.662 310.41 331.682 310.524C331.702 310.639 331.694 310.756 331.66 310.867C331.588 311.053 325.039 329.457 304.89 346.46C284.741 363.463 233.948 373.63 233.39 373.73ZM261.775 315.343L234.605 372.028C242.942 370.255 286.085 360.588 304.018 345.359C321.178 330.887 328.328 315.443 329.944 311.396L261.775 315.343Z" fill="#231F20"/>
<path d="M292.392 213.813C292.392 213.813 275.318 207.75 248.891 209.28C222.465 210.81 178.578 235.764 178.578 235.764L238.996 258.901L292.392 213.813Z" fill="white"/>
<path d="M238.996 259.616C238.91 259.629 238.824 259.629 238.738 259.616L178.321 236.45C178.196 236.399 178.087 236.314 178.007 236.206C177.926 236.098 177.876 235.969 177.863 235.835C177.853 235.701 177.882 235.566 177.945 235.447C178.008 235.329 178.104 235.23 178.221 235.163C178.664 234.906 222.551 210.095 248.848 208.579C275.146 207.063 292.463 213.084 292.621 213.141C292.742 213.181 292.85 213.253 292.934 213.35C293.018 213.446 293.074 213.563 293.097 213.688C293.121 213.814 293.11 213.943 293.067 214.063C293.023 214.183 292.948 214.29 292.85 214.371L239.453 259.459C239.321 259.558 239.161 259.613 238.996 259.616ZM180.266 235.649L238.896 258.072L290.976 214.099C286.686 212.798 270.956 208.708 248.977 209.995C225.525 211.353 187.802 231.502 180.266 235.649Z" fill="#231F20"/>
<path d="M225.254 254.282C247.462 232.517 283.283 210.109 326.255 192.964C391.377 166.995 439.611 189.403 455.584 198.841C457.32 199.867 458.668 201.44 459.415 203.313C460.163 205.186 460.269 207.254 459.716 209.194C454.626 227.041 435.035 276.476 369.912 302.444C326.941 319.604 285.542 327.984 254.454 327.469C254.454 327.469 244.444 318.618 234.248 293.149C224.052 267.681 225.254 254.282 225.254 254.282Z" fill="white"/>
<path d="M257.128 328.213H254.44C254.267 328.215 254.099 328.154 253.968 328.041C253.553 327.67 243.7 318.775 233.59 293.407C223.48 268.039 224.495 254.797 224.538 254.239C224.556 254.071 224.632 253.914 224.753 253.796C247.804 231.202 284.698 208.794 325.997 192.306C390.647 166.566 438.409 187.859 455.955 198.226C457.824 199.334 459.273 201.028 460.078 203.046C460.882 205.064 460.997 207.291 460.403 209.38C454.811 228.985 434.834 277.334 370.184 303.117C330.029 319.133 289.031 328.213 257.128 328.213ZM254.74 326.783C286.743 327.212 328.657 318.203 369.655 301.801C433.719 276.247 453.496 228.399 459.03 209.008C459.536 207.221 459.437 205.318 458.749 203.593C458.062 201.868 456.823 200.418 455.226 199.47C437.866 189.217 390.576 168.096 326.526 193.65C285.528 209.995 248.891 232.26 225.954 254.611C225.868 256.57 225.697 269.74 234.92 292.863C244.144 315.987 253.324 325.396 254.74 326.769V326.783Z" fill="#231F20"/>
<path d="M459.716 209.194C453.042 231.258 440.903 251.278 424.424 267.395C424.424 267.395 410.538 257.9 398.469 227.613C386.4 197.325 389.889 180.895 389.889 180.895C412.937 181.24 435.522 187.414 455.541 198.841C457.285 199.861 458.641 201.431 459.397 203.304C460.152 205.178 460.265 207.25 459.716 209.194Z" fill="white"/>
<path d="M424.424 268.11C424.281 268.107 424.142 268.063 424.024 267.981C423.452 267.581 409.824 257.971 397.797 227.941C385.771 197.911 389.089 181.481 389.217 180.751C389.253 180.591 389.341 180.447 389.468 180.344C389.596 180.24 389.754 180.182 389.918 180.179C413.095 180.504 435.809 186.714 455.927 198.226C457.796 199.334 459.245 201.028 460.05 203.046C460.854 205.064 460.968 207.291 460.374 209.38C453.73 231.569 441.562 251.708 425.01 267.91C424.933 267.984 424.841 268.041 424.739 268.075C424.638 268.11 424.53 268.122 424.424 268.11ZM390.533 181.624C390.075 184.784 388.531 200.771 399.113 227.384C409.695 253.996 421.836 264.564 424.353 266.48C440.544 250.538 452.464 230.78 459.016 209.023C459.522 207.236 459.423 205.332 458.735 203.607C458.047 201.882 456.809 200.433 455.212 199.484C435.496 188.19 413.251 182.047 390.533 181.624Z" fill="#231F20"/>
<path d="M235.192 251.222C235.09 251.221 234.988 251.199 234.895 251.157C234.801 251.115 234.718 251.055 234.649 250.979C234.587 250.908 234.541 250.826 234.512 250.737C234.483 250.647 234.472 250.554 234.48 250.46C234.488 250.367 234.515 250.276 234.558 250.193C234.602 250.11 234.662 250.037 234.734 249.978C250.807 236.829 267.664 224.671 285.213 213.57C285.375 213.473 285.569 213.442 285.753 213.485C285.937 213.528 286.097 213.64 286.2 213.799C286.25 213.877 286.283 213.965 286.298 214.057C286.314 214.149 286.311 214.242 286.289 214.333C286.268 214.423 286.229 214.509 286.174 214.584C286.12 214.659 286.051 214.723 285.971 214.771C268.486 225.84 251.681 237.95 235.65 251.036C235.525 251.151 235.362 251.218 235.192 251.222Z" fill="white"/>
<path d="M290.046 325.525C289.867 325.526 289.693 325.46 289.56 325.339C289.36 325.153 270.041 306.749 260.445 282.668C250.85 258.586 252.194 231.931 252.209 231.674C252.21 231.578 252.232 231.483 252.271 231.396C252.311 231.309 252.368 231.231 252.439 231.166C252.51 231.102 252.593 231.053 252.684 231.022C252.775 230.991 252.871 230.979 252.967 230.987C253.155 231.002 253.33 231.089 253.456 231.231C253.581 231.372 253.647 231.556 253.639 231.745C253.639 232.003 252.309 258.386 261.775 282.138C271.242 305.891 290.375 324.109 290.547 324.295C290.614 324.361 290.667 324.44 290.703 324.528C290.74 324.615 290.758 324.708 290.758 324.802C290.758 324.897 290.74 324.99 290.703 325.077C290.667 325.165 290.614 325.244 290.547 325.31C290.414 325.444 290.235 325.52 290.046 325.525Z" fill="#231F20"/>
<path d="M453.61 197.068C453.61 197.068 481.095 189.918 482.725 194.008C484.355 198.097 459.502 211.825 459.502 211.825" fill="#231F20"/>
<path d="M459.501 212.455C459.365 212.451 459.233 212.403 459.126 212.318C459.019 212.232 458.942 212.114 458.908 211.982C458.874 211.849 458.885 211.709 458.938 211.583C458.99 211.457 459.083 211.351 459.201 211.282C470.927 204.79 483.039 196.439 482.081 194.236C481.123 192.034 466.666 194.308 453.71 197.683C453.629 197.703 453.545 197.708 453.463 197.696C453.38 197.684 453.301 197.656 453.229 197.614C453.157 197.571 453.095 197.515 453.045 197.448C452.995 197.382 452.958 197.306 452.938 197.225C452.917 197.144 452.913 197.06 452.924 196.978C452.936 196.895 452.964 196.816 453.007 196.744C453.049 196.673 453.105 196.61 453.172 196.56C453.239 196.51 453.315 196.474 453.395 196.453C459.973 194.751 481.552 189.517 483.254 193.779C484.955 198.04 465.693 209.094 459.745 212.369C459.669 212.411 459.587 212.44 459.501 212.455Z" fill="#231F20"/>
<path d="M456.055 214.414C452.291 209.533 449.964 203.699 449.334 197.568C449.295 196.603 449.62 195.658 450.245 194.921C450.871 194.185 451.75 193.711 452.709 193.593C453.118 193.499 453.542 193.489 453.955 193.564C454.368 193.639 454.761 193.797 455.112 194.028C455.462 194.259 455.762 194.559 455.993 194.91C456.224 195.26 456.381 195.654 456.456 196.067C456.988 201.347 458.973 206.376 462.19 210.596C462.423 210.945 462.583 211.338 462.659 211.752C462.735 212.165 462.726 212.589 462.632 212.999C462.538 213.409 462.362 213.795 462.114 214.134C461.866 214.473 461.551 214.758 461.189 214.971C460.418 215.535 459.464 215.79 458.514 215.687C457.564 215.584 456.688 215.13 456.055 214.414Z" fill="white"/>
<path d="M458.901 216.43C458.247 216.441 457.599 216.303 457.007 216.025C456.415 215.748 455.894 215.338 455.484 214.828C451.659 209.85 449.283 203.911 448.62 197.668C448.554 196.514 448.931 195.377 449.676 194.492C450.42 193.607 451.475 193.04 452.624 192.906C453.192 192.818 453.772 192.844 454.329 192.984C454.887 193.124 455.411 193.375 455.87 193.722C456.232 193.996 456.535 194.342 456.759 194.738C456.982 195.134 457.123 195.572 457.171 196.024C457.712 201.178 459.667 206.082 462.82 210.195C463.096 210.555 463.296 210.968 463.407 211.408C463.518 211.849 463.537 212.307 463.463 212.755C463.372 213.329 463.165 213.878 462.856 214.37C462.546 214.861 462.14 215.285 461.661 215.615C460.85 216.171 459.884 216.456 458.901 216.43ZM453.281 194.251H452.81C452.033 194.343 451.318 194.723 450.807 195.316C450.297 195.909 450.026 196.672 450.05 197.454C450.681 203.448 452.952 209.153 456.613 213.942C457.136 214.523 457.857 214.888 458.635 214.965C459.413 215.041 460.192 214.825 460.818 214.356C461.138 214.143 461.412 213.867 461.624 213.545C461.835 213.223 461.979 212.862 462.047 212.483C462.085 212.233 462.073 211.978 462.012 211.732C461.95 211.487 461.841 211.256 461.69 211.053C458.374 206.728 456.315 201.572 455.741 196.153C455.711 195.893 455.63 195.641 455.503 195.413C455.375 195.185 455.203 194.984 454.997 194.823C454.504 194.45 453.9 194.253 453.281 194.265V194.251Z" fill="#231F20"/>
<path d="M295.724 313.398C295.534 313.41 295.348 313.345 295.206 313.219C295.064 313.093 294.978 312.916 294.966 312.726C294.955 312.537 295.019 312.35 295.145 312.208C295.271 312.066 295.449 311.98 295.638 311.968C296.282 311.897 360.06 304.246 410.839 263.105C410.985 262.987 411.173 262.931 411.36 262.949C411.548 262.968 411.72 263.06 411.84 263.205C411.956 263.355 412.01 263.544 411.992 263.733C411.973 263.922 411.883 264.096 411.74 264.221C360.632 305.691 296.453 313.313 295.81 313.384L295.724 313.398Z" fill="#D1D3D4"/>
<path d="M325.367 85.5564C326.637 85.0189 327.658 84.0235 328.227 82.7679C330.588 79.1334 331.867 74.9033 331.917 70.57C331.791 64.2225 329.196 58.1739 324.685 53.7075C320.173 49.241 314.098 46.7081 307.75 46.6461L312.812 50.7645C308.474 50.5939 304.16 51.4918 300.25 53.3794C296.34 55.267 292.954 58.0864 290.39 61.5896C292.103 61.0892 293.935 61.1747 295.595 61.8327C293.007 62.5061 290.462 63.3322 287.973 64.3066C287.578 64.4142 287.227 64.6446 286.972 64.9644C286.764 65.4132 286.733 65.924 286.886 66.3944C288.716 74.9029 295.094 82.7536 303.603 84.5554C305.033 84.8557 306.463 84.9844 307.993 85.1703C311.239 85.585 314.442 86.2714 317.717 86.443C319.772 86.5891 321.838 86.4398 323.852 85.9997C324.366 85.8835 324.872 85.7355 325.367 85.5564Z" fill="white"/>
<path d="M319.19 87.1723H317.588C315.45 87.0203 313.321 86.7578 311.21 86.3858C310.081 86.2142 308.951 86.0426 307.821 85.8996L306.763 85.7709C305.648 85.6279 304.504 85.4992 303.374 85.2561C295.094 83.5115 288.187 76.0183 286.214 66.6661C286.106 66.3453 286.066 66.0057 286.095 65.6686C286.125 65.3315 286.224 65.0042 286.385 64.707C286.71 64.2731 287.166 63.9567 287.687 63.8061C289.374 63.134 291.09 62.5477 292.82 62.0186C292.047 61.9966 291.274 62.098 290.532 62.3189C290.403 62.3567 290.264 62.3537 290.137 62.3102C290.009 62.2667 289.897 62.1848 289.817 62.0758C289.74 61.9619 289.699 61.8274 289.699 61.6897C289.699 61.552 289.74 61.4174 289.817 61.3036C292.265 57.9784 295.435 55.2511 299.088 53.3267C302.741 51.4022 306.783 50.3307 310.91 50.1925L307.292 47.2467C307.189 47.1592 307.115 47.0429 307.08 46.9129C307.044 46.7828 307.048 46.645 307.092 46.5174C307.141 46.3906 307.227 46.2818 307.34 46.2052C307.452 46.1286 307.585 46.0879 307.721 46.0884C314.229 46.1531 320.457 48.7417 325.093 53.3086C329.73 57.8756 332.412 64.0641 332.574 70.57C332.542 75.0454 331.227 79.4178 328.785 83.1683C328.144 84.5474 327.012 85.6383 325.61 86.2285C325.083 86.4426 324.537 86.6101 323.98 86.729C322.406 87.0641 320.798 87.2129 319.19 87.1723ZM292.62 60.56C293.712 60.5635 294.794 60.7721 295.809 61.1749C295.937 61.2297 296.045 61.322 296.119 61.4394C296.193 61.5568 296.229 61.694 296.224 61.8327C296.212 61.9681 296.159 62.0967 296.072 62.2014C295.985 62.306 295.868 62.3819 295.738 62.419C293.167 63.0811 290.641 63.9025 288.173 64.8786C288.009 64.8838 287.851 64.9341 287.714 65.0239C287.577 65.1137 287.468 65.2396 287.399 65.3876C287.329 65.5356 287.302 65.7 287.32 65.8625C287.338 66.025 287.401 66.1794 287.501 66.3086C289.417 75.2318 295.924 82.3246 303.703 83.9691C304.775 84.1979 305.891 84.3266 306.963 84.4553L308.05 84.584C309.18 84.727 310.324 84.9129 311.468 85.0845C313.536 85.45 315.622 85.7077 317.717 85.8567C319.711 86.0068 321.716 85.8574 323.666 85.4134C324.154 85.3052 324.632 85.157 325.096 84.9701C326.235 84.495 327.147 83.5985 327.641 82.4676C329.953 78.9253 331.213 74.7997 331.273 70.57C331.15 64.7321 328.883 59.1437 324.903 54.871C320.923 50.5983 315.509 47.9402 309.694 47.404L313.198 50.264C313.303 50.3525 313.379 50.4713 313.415 50.6043C313.451 50.7373 313.445 50.8781 313.398 51.0076C313.356 51.1408 313.268 51.2551 313.151 51.3308C313.034 51.4064 312.893 51.4388 312.755 51.4223C308.811 51.2853 304.887 52.044 301.278 53.6416C297.669 55.2391 294.47 57.6338 291.92 60.6458L292.62 60.56Z" fill="#231F20"/>
<path d="M307.936 98.3978C307.936 98.3978 308.193 113.356 315.229 113.828C322.264 114.299 322.379 100.6 322.379 100.6" fill="#231F20"/>
<path d="M315.572 114.471H315.186C307.65 113.971 307.307 99.0556 307.292 98.4264C307.279 98.3349 307.285 98.2414 307.31 98.1524C307.336 98.0635 307.381 97.9811 307.441 97.9109C307.501 97.8407 307.576 97.7844 307.66 97.7458C307.745 97.7072 307.836 97.6873 307.929 97.6873C308.021 97.6873 308.113 97.7072 308.197 97.7458C308.281 97.7844 308.356 97.8407 308.416 97.9109C308.477 97.9811 308.521 98.0635 308.547 98.1524C308.573 98.2414 308.579 98.3349 308.565 98.4264C308.565 98.5694 308.894 112.798 315.272 113.227C315.826 113.278 316.384 113.207 316.908 113.019C317.431 112.831 317.908 112.531 318.303 112.14C321.65 109.051 321.807 100.7 321.807 100.614C321.817 100.452 321.887 100.3 322.004 100.186C322.12 100.073 322.274 100.006 322.436 99.9994C322.603 99.9994 322.763 100.066 322.881 100.184C322.999 100.302 323.065 100.462 323.065 100.629C323.065 101 322.908 109.609 319.161 113.07C318.19 113.981 316.904 114.483 315.572 114.471Z" fill="#231F20"/>
<path d="M321.778 91.162L322.436 100.6C322.436 100.6 321.821 105.92 315.972 104.676C314.25 104.292 312.636 103.53 311.245 102.444C309.855 101.358 308.725 99.9757 307.936 98.3978C307.936 98.3978 306.506 75.8038 305.977 69.7978C310.177 69.2965 314.226 67.9177 317.86 65.7509C318.399 65.3372 318.991 64.9959 319.619 64.7356C320.791 64.564 320.648 65.2218 321.163 66.1656C322.103 67.9718 323.61 69.419 325.453 70.284C325.689 70.3621 325.897 70.506 326.054 70.6987C326.142 70.8562 326.192 71.0329 326.197 71.2135C326.797 76.6046 327.898 81.9671 327.126 87.3868C326.497 92.02 321.778 91.162 321.778 91.162Z" fill="white"/>
<path d="M317.645 105.519C317.039 105.52 316.435 105.453 315.844 105.319C314.016 104.923 312.302 104.119 310.828 102.968C309.355 101.817 308.161 100.347 307.335 98.6695C307.322 98.5938 307.322 98.5164 307.335 98.4407C307.335 98.2119 305.905 75.7895 305.39 69.8407C305.378 69.6644 305.435 69.4903 305.548 69.3545C305.602 69.2895 305.67 69.2367 305.746 69.1997C305.823 69.1628 305.906 69.1424 305.991 69.14C310.097 68.6436 314.053 67.2891 317.602 65.1646L318.089 64.85C318.504 64.493 318.992 64.2296 319.519 64.0778C319.729 64.0229 319.949 64.0115 320.164 64.0443C320.379 64.077 320.585 64.1533 320.77 64.2683C320.955 64.3834 321.114 64.5349 321.238 64.7136C321.362 64.8923 321.449 65.0944 321.492 65.3076C321.561 65.5145 321.647 65.7154 321.749 65.9082C322.61 67.5901 324.01 68.9346 325.725 69.7263C326.082 69.8554 326.391 70.0898 326.611 70.3984C326.749 70.6389 326.827 70.9084 326.84 71.1849C326.969 72.3432 327.126 73.5015 327.269 74.6455C328.031 78.8917 328.199 83.223 327.77 87.5155C327.71 88.1704 327.515 88.8058 327.198 89.3818C326.88 89.9577 326.447 90.4616 325.925 90.8617C324.903 91.5321 323.7 91.8716 322.479 91.8341L323.079 100.5C322.988 101.288 322.741 102.05 322.353 102.742C321.965 103.434 321.444 104.043 320.82 104.533C319.895 105.193 318.782 105.539 317.645 105.519ZM308.579 98.2405C309.338 99.6975 310.406 100.972 311.707 101.974C313.009 102.977 314.513 103.684 316.115 104.046C316.723 104.266 317.373 104.346 318.016 104.279C318.659 104.213 319.279 104.002 319.829 103.662C320.379 103.323 320.845 102.863 321.192 102.318C321.54 101.773 321.76 101.156 321.835 100.514L321.177 91.2192C321.169 91.1217 321.183 91.0236 321.218 90.932C321.252 90.8405 321.307 90.7579 321.378 90.6901C321.452 90.6214 321.54 90.5703 321.637 90.5406C321.733 90.5109 321.835 90.5034 321.935 90.5185C323.067 90.6864 324.222 90.4483 325.196 89.8464C325.574 89.5458 325.886 89.1714 326.115 88.7461C326.344 88.3208 326.483 87.8535 326.526 87.3725C326.917 83.198 326.749 78.9899 326.025 74.86C325.868 73.7017 325.725 72.5434 325.596 71.3708C325.596 71.3708 325.596 71.1706 325.596 71.1277L325.296 70.9704C323.285 70.065 321.637 68.5084 320.62 66.5517C320.497 66.3147 320.387 66.0713 320.291 65.8224C320.242 65.6743 320.179 65.5307 320.105 65.3934C319.986 65.3808 319.866 65.3808 319.747 65.3934C319.407 65.5322 319.089 65.7201 318.804 65.9511C318.575 66.0941 318.375 66.2514 318.203 66.3372C314.691 68.4231 310.805 69.8027 306.763 70.3984C307.192 76.8906 308.465 96.4673 308.579 98.2405Z" fill="#231F20"/>
<path d="M322.05 95.8095C319.729 95.9933 317.427 95.2821 315.615 93.8218C314.872 93.2154 314.271 92.4552 313.851 91.5935C313.431 90.7318 313.203 89.7893 313.184 88.8311C315.809 90.3014 318.755 91.102 321.764 91.162L322.05 95.8095Z" fill="#231F20"/>
<path d="M321.335 96.4672C319.079 96.5121 316.883 95.7345 315.158 94.2793C314.346 93.6102 313.691 92.7723 313.236 91.824C312.782 90.8756 312.54 89.8397 312.526 88.7881C312.538 88.6811 312.575 88.5785 312.635 88.4889C312.695 88.3993 312.775 88.3254 312.87 88.2733C312.964 88.2207 313.069 88.1931 313.177 88.1931C313.285 88.1931 313.391 88.2207 313.484 88.2733C316.008 89.7119 318.846 90.5075 321.75 90.5899C321.915 90.5893 322.074 90.6507 322.196 90.762C322.318 90.8732 322.393 91.0262 322.408 91.1905L322.651 95.8238C322.663 95.9846 322.611 96.1438 322.507 96.2668C322.402 96.3899 322.254 96.467 322.093 96.4815C321.84 96.4986 321.587 96.4938 321.335 96.4672ZM313.899 89.9178C314.233 91.2497 314.966 92.4474 316.001 93.3498C317.508 94.5902 319.413 95.2452 321.364 95.1945L321.178 91.8054C318.647 91.6847 316.169 91.042 313.899 89.9178Z" fill="#231F20"/>
<path d="M320.334 74.4167C320.334 74.4167 323.652 78.7068 322.98 79.5934C322.308 80.48 320.263 80.0366 320.263 80.0366" fill="white"/>
<path d="M321.306 80.7659C320.917 80.7696 320.529 80.7312 320.148 80.6515C320.066 80.6365 319.988 80.6055 319.919 80.5604C319.849 80.5152 319.789 80.4568 319.742 80.3884C319.694 80.32 319.661 80.243 319.644 80.1618C319.627 80.0806 319.625 79.9967 319.64 79.9151C319.655 79.8334 319.686 79.7554 319.731 79.6857C319.777 79.616 319.835 79.5558 319.903 79.5087C319.972 79.4616 320.049 79.4284 320.13 79.411C320.211 79.3936 320.295 79.3924 320.377 79.4074C321.077 79.5504 322.207 79.5504 322.493 79.1929C321.829 77.6231 320.933 76.1623 319.833 74.86C319.782 74.7944 319.745 74.7194 319.723 74.6392C319.701 74.559 319.695 74.4753 319.706 74.3929C319.716 74.3104 319.743 74.2309 319.785 74.1589C319.826 74.0869 319.882 74.0239 319.948 73.9734C320.014 73.9231 320.09 73.8865 320.171 73.8657C320.251 73.8449 320.335 73.8404 320.418 73.8524C320.5 73.8643 320.58 73.8926 320.651 73.9354C320.723 73.9783 320.785 74.035 320.834 74.1021C323.237 77.2338 324.123 79.2358 323.48 80.0509C323.186 80.3133 322.842 80.5122 322.468 80.6353C322.094 80.7583 321.698 80.8028 321.306 80.7659Z" fill="#231F20"/>
<path d="M319.92 85.6708H319.662C316.502 85.4992 314.128 82.439 314.028 82.3103C313.977 82.2446 313.94 82.1695 313.918 82.0894C313.897 82.0093 313.891 81.9257 313.902 81.8433C313.912 81.761 313.939 81.6816 313.98 81.6096C314.022 81.5376 314.077 81.4744 314.143 81.4237C314.208 81.373 314.283 81.3358 314.363 81.3141C314.444 81.2924 314.527 81.2867 314.609 81.2973C314.692 81.3079 314.771 81.3347 314.843 81.376C314.915 81.4173 314.978 81.4724 315.029 81.5381C315.029 81.5381 317.16 84.2694 319.719 84.3981C320.395 84.4066 321.063 84.2602 321.673 83.9701C322.283 83.6801 322.818 83.2542 323.237 82.725C323.357 82.6114 323.516 82.548 323.681 82.548C323.846 82.548 324.004 82.6114 324.124 82.725C324.184 82.7836 324.232 82.8537 324.264 82.9311C324.297 83.0084 324.314 83.0915 324.314 83.1755C324.314 83.2594 324.297 83.3425 324.264 83.4199C324.232 83.4973 324.184 83.5673 324.124 83.6259C323.607 84.2436 322.965 84.7451 322.24 85.0975C321.516 85.4499 320.725 85.6453 319.92 85.6708Z" fill="#231F20"/>
<path d="M324.61 218.646L314.156 261.175C314.156 261.175 366.223 243.743 368.096 238.052C369.969 232.36 341.169 238.91 341.169 238.91L343.214 226.755L324.61 218.646Z" fill="white"/>
<path d="M314.157 261.89C314.049 261.889 313.942 261.863 313.846 261.815C313.749 261.767 313.665 261.698 313.599 261.612C313.533 261.527 313.487 261.428 313.465 261.323C313.442 261.217 313.444 261.108 313.47 261.003L323.909 218.475C323.934 218.373 323.98 218.277 324.046 218.195C324.111 218.113 324.194 218.047 324.288 218C324.383 217.954 324.486 217.929 324.591 217.927C324.696 217.925 324.8 217.946 324.896 217.989L343.486 226.097C343.631 226.163 343.75 226.273 343.827 226.412C343.905 226.551 343.935 226.711 343.915 226.869L342.07 237.98C347.79 236.722 365.551 233.118 368.425 236.293C368.669 236.552 368.832 236.876 368.895 237.227C368.959 237.577 368.92 237.938 368.783 238.266C366.852 244.143 319.762 260.059 314.443 261.847C314.352 261.885 314.254 261.9 314.157 261.89ZM325.096 219.648L315.172 260.074C335.192 253.31 366.151 241.641 367.424 237.823C367.524 237.48 367.424 237.351 367.353 237.251C365.393 235.092 350.35 237.551 341.327 239.61C341.212 239.634 341.094 239.63 340.982 239.597C340.869 239.565 340.767 239.506 340.683 239.424C340.597 239.343 340.532 239.242 340.495 239.13C340.457 239.017 340.448 238.898 340.469 238.781L342.428 227.184L325.096 219.648Z" fill="#231F20"/>
<path d="M281.109 171.085C281.109 171.085 273.888 201.115 288.145 205.19C302.402 209.266 326.254 192.964 326.254 192.964L318.532 220.863C318.532 220.863 313.356 233.461 320.863 232.904C327.627 224.138 336.865 221.821 343.214 226.755C353.153 215.729 370.599 181.095 359.33 169.211C348.062 157.328 281.109 171.085 281.109 171.085Z" fill="#231F20"/>
<path d="M320.392 233.59C319.758 233.633 319.123 233.519 318.544 233.257C317.965 232.995 317.46 232.593 317.074 232.089C314.657 228.771 317.818 221.006 317.946 220.649L325.196 194.451C319.805 197.897 300.5 209.409 288.016 205.891C273.345 201.701 280.237 172.272 280.537 171.028C280.565 170.911 280.625 170.804 280.712 170.721C280.798 170.637 280.906 170.58 281.024 170.556C283.784 169.984 348.462 156.856 359.831 168.868C371.199 180.88 354.111 215.787 343.729 227.255C343.624 227.376 343.477 227.452 343.317 227.468C343.158 227.484 342.998 227.439 342.871 227.341C341.668 226.402 340.289 225.713 338.815 225.315C337.342 224.918 335.803 224.819 334.291 225.024C329.715 225.611 325.168 228.571 321.421 233.376C321.369 233.446 321.303 233.504 321.226 233.546C321.15 233.588 321.065 233.613 320.978 233.619L320.392 233.59ZM326.255 192.377C326.389 192.378 326.52 192.424 326.626 192.506C326.732 192.579 326.812 192.683 326.856 192.803C326.899 192.924 326.904 193.055 326.869 193.178L319.19 221.035C318.332 223.165 316.488 229.014 318.161 231.316C318.449 231.673 318.823 231.95 319.249 232.12C319.675 232.291 320.137 232.349 320.592 232.289C324.481 227.355 329.258 224.309 334.091 223.709C337.293 223.252 340.547 224.041 343.186 225.911C353.053 214.571 369.569 180.895 358.916 169.655C348.262 158.415 287.23 170.527 281.696 171.642C280.924 175.146 275.718 200.986 288.374 204.532C302.159 208.465 325.725 192.549 325.954 192.392C326.048 192.349 326.151 192.33 326.255 192.335V192.377Z" fill="#231F20"/>
<path d="M314.156 261.175C314.156 261.175 319.876 266.78 336.178 261.175C352.48 255.569 373.072 240.54 368.096 238.052C363.119 235.563 319.676 253.324 314.156 261.175Z" fill="#231F20"/>
<path d="M323.208 264.306C316.588 264.306 313.885 261.775 313.728 261.618C313.618 261.515 313.549 261.376 313.534 261.226C313.518 261.077 313.556 260.927 313.642 260.803C319.076 253.095 362.562 234.562 368.382 237.48C368.736 237.64 369.032 237.907 369.229 238.242C369.426 238.577 369.515 238.965 369.483 239.353C369.14 244.301 350.593 256.87 336.393 261.775C332.167 263.337 327.713 264.193 323.208 264.306ZM315.057 261.06C316.673 262.133 322.779 265.121 335.978 260.574C350.278 255.641 367.953 243.3 368.225 239.267C368.239 239.127 368.207 238.986 368.131 238.866C368.056 238.747 367.943 238.657 367.81 238.609C363.52 236.45 321.85 253.095 315.057 261.06Z" fill="#231F20"/>
<path d="M343.5 236.207C339.738 237.605 336.09 239.292 332.589 241.255L333.175 234.677C333.175 234.677 341.626 230.573 343.5 230.816V236.207Z" fill="white"/>
<path d="M332.618 241.97C332.491 241.971 332.367 241.936 332.26 241.87C332.142 241.801 332.047 241.7 331.986 241.578C331.925 241.456 331.901 241.319 331.917 241.183L332.503 234.62C332.511 234.499 332.551 234.382 332.619 234.282C332.687 234.181 332.78 234.1 332.889 234.048C334.319 233.347 341.655 229.872 343.629 230.101C343.802 230.122 343.961 230.207 344.074 230.339C344.188 230.472 344.248 230.641 344.243 230.816V236.207C344.242 236.352 344.198 236.493 344.117 236.613C344.035 236.732 343.92 236.825 343.786 236.879C340.074 238.26 336.475 239.923 333.018 241.855C332.897 241.929 332.759 241.969 332.618 241.97ZM333.89 235.149L333.461 239.911C336.497 238.338 339.619 236.939 342.813 235.721V231.574C339.741 232.505 336.756 233.701 333.89 235.149Z" fill="#231F20"/>
<path d="M298.641 99.6562C298.641 99.6562 247.003 120.62 242.627 126.512C238.252 132.403 230.744 168.125 230.744 168.125L246.345 165.88C246.345 165.88 260.46 143.715 264.835 139.024C269.211 134.334 293.936 127.77 293.936 127.77L298.641 99.6562Z" fill="#898989"/>
<path d="M254.84 155.769L244.344 173.73C244.344 173.73 253.267 180.88 251.094 182.053C248.92 183.225 246.804 184.155 246.804 184.155C246.804 184.155 246.575 190.032 243.944 190.733C241.312 191.434 226.626 190.132 227.284 185.099C229.572 167.738 232.418 147.99 232.232 150.25L254.84 155.769Z" fill="white"/>
<path d="M241.884 191.619C237.952 191.619 230.887 190.633 228.013 188.116C227.536 187.759 227.161 187.284 226.925 186.737C226.689 186.19 226.601 185.59 226.669 184.999C227.627 177.634 228.814 168.997 229.901 161.318C230.859 154.611 231.331 151.637 231.602 150.335C231.595 150.283 231.595 150.23 231.602 150.178C231.595 150.211 231.595 150.245 231.602 150.278C231.846 149.306 232.031 149.32 232.375 149.363C232.476 149.37 232.575 149.4 232.664 149.449C232.752 149.499 232.83 149.567 232.889 149.649L254.983 155.069C255.09 155.097 255.189 155.149 255.273 155.221C255.357 155.293 255.424 155.382 255.469 155.483C255.518 155.583 255.544 155.694 255.544 155.805C255.544 155.917 255.518 156.027 255.469 156.127L245.259 173.53C247.404 175.289 252.309 179.536 252.123 181.581C252.103 181.805 252.027 182.021 251.902 182.208C251.777 182.396 251.607 182.549 251.408 182.653C249.806 183.511 248.248 184.269 247.533 184.598C247.418 186.128 246.861 190.676 244.229 191.391C243.459 191.558 242.672 191.635 241.884 191.619ZM232.847 151.122C232.246 154.883 229.987 170.341 228.085 185.184C228.056 185.543 228.122 185.904 228.275 186.23C228.428 186.555 228.663 186.836 228.957 187.043C232.132 189.818 241.827 190.576 243.843 190.032C245.545 189.575 246.074 185.513 246.131 184.126C246.138 183.996 246.18 183.869 246.253 183.761C246.326 183.652 246.427 183.566 246.546 183.511C246.546 183.511 248.605 182.568 250.736 181.424C250.822 180.666 247.633 177.291 243.886 174.274C243.75 174.168 243.658 174.017 243.626 173.849C243.595 173.68 243.626 173.505 243.715 173.358L253.725 156.198L232.847 151.122Z" fill="#231F20"/>
<path d="M393.993 81.9242C393.993 81.2092 386.943 57.2281 386.943 57.2281L402.201 51.8799C402.201 51.8799 401.973 46.2457 405.247 44.1293C408.522 42.0129 412.998 44.1293 412.998 44.1293C412.998 44.1293 426.368 32.8752 428.013 35.2204C429.657 37.5656 424.724 42.7279 417.216 48.0904C417.216 48.0904 421.206 59.3588 416.745 62.8766C414.134 64.9675 410.966 66.2454 407.635 66.5517L393.993 81.9242Z" fill="white"/>
<path d="M393.994 82.6392C393.908 82.6528 393.821 82.6528 393.736 82.6392C393.606 82.5913 393.493 82.5059 393.412 82.3939C393.331 82.282 393.284 82.1483 393.279 82.01C393.121 81.009 388.989 66.8091 386.257 57.4712C386.21 57.293 386.231 57.1036 386.315 56.9398C386.4 56.7759 386.542 56.6494 386.715 56.5846L401.487 51.408C401.487 49.8779 401.873 45.5021 404.862 43.5716C407.85 41.6411 411.611 42.8423 412.87 43.3428C415.429 41.2121 424.495 33.819 427.541 34.2337C427.751 34.2561 427.954 34.3225 428.136 34.4284C428.318 34.5344 428.476 34.6775 428.6 34.8486C430.973 38.2377 423.223 44.687 418.06 48.4336C418.804 50.7645 421.478 60.131 417.188 63.5058C414.538 65.6186 411.346 66.9419 407.979 67.3239L394.523 82.439C394.453 82.5066 394.37 82.5592 394.279 82.5937C394.188 82.6281 394.091 82.6436 393.994 82.6392ZM387.83 57.7C390.018 65.1932 393.293 76.4187 394.351 80.4656L407.107 66.1656C407.237 66.024 407.415 65.9371 407.607 65.9225C410.785 65.6163 413.805 64.3942 416.302 62.4047C419.633 59.7735 417.603 51.4223 416.545 48.4193C416.494 48.2738 416.492 48.1159 416.538 47.969C416.584 47.8222 416.677 47.6942 416.802 47.6042C425.525 41.3408 428.414 37.0937 427.427 35.678C426.412 35.0631 419.905 39.3102 413.456 44.7442C413.351 44.8302 413.224 44.884 413.09 44.8993C412.955 44.9145 412.819 44.8904 412.698 44.83C412.698 44.83 408.537 42.9281 405.634 44.83C402.731 46.7319 402.917 51.8942 402.917 51.98C402.922 52.1335 402.877 52.2846 402.79 52.4108C402.702 52.537 402.576 52.6316 402.431 52.6807L387.83 57.7Z" fill="#231F20"/>
<path d="M335.421 152.738H335.292C335.121 152.703 334.972 152.603 334.875 152.458C334.779 152.313 334.743 152.136 334.777 151.966C338.967 131.345 342.942 94.2651 342.742 92.4633C342.721 92.3826 342.716 92.2984 342.727 92.2156C342.739 92.1328 342.767 92.0532 342.809 91.9813C342.852 91.9094 342.908 91.8467 342.975 91.7969C343.042 91.7471 343.119 91.7111 343.2 91.6912C343.372 91.6478 343.555 91.6746 343.708 91.7658C343.861 91.8569 343.971 92.0049 344.015 92.1774C344.372 93.5073 340.254 131.588 336.064 152.237C336.027 152.38 335.943 152.506 335.827 152.596C335.711 152.687 335.568 152.736 335.421 152.738Z" fill="#231F20"/>
<path d="M269.483 135.635C269.331 135.631 269.185 135.574 269.07 135.474C268.955 135.374 268.878 135.237 268.853 135.087C268.828 134.937 268.855 134.782 268.931 134.65C269.007 134.518 269.126 134.416 269.269 134.362L298.426 124.781C298.587 124.742 298.756 124.764 298.901 124.844C299.046 124.924 299.156 125.055 299.208 125.212C299.26 125.369 299.251 125.54 299.183 125.69C299.115 125.841 298.993 125.961 298.841 126.025L269.683 135.606C269.619 135.629 269.551 135.639 269.483 135.635Z" fill="#231F20"/>
<path d="M413.27 59.13C413.147 59.1437 413.022 59.1437 412.898 59.13C411.792 58.89 410.766 58.3693 409.92 57.6179C409.073 56.8665 408.434 55.9098 408.065 54.84C407.963 55.7813 407.592 56.6733 406.996 57.4089C406.4 58.1445 405.604 58.6924 404.704 58.987C404.623 59.0141 404.536 59.0242 404.45 59.0165C404.364 59.0089 404.281 58.9836 404.205 58.9424C404.13 58.9012 404.063 58.8449 404.01 58.777C403.957 58.709 403.919 58.6309 403.897 58.5475C403.875 58.464 403.871 58.377 403.885 58.2919C403.898 58.2068 403.929 58.1253 403.975 58.0525C404.021 57.9798 404.082 57.9173 404.153 57.8689C404.225 57.8206 404.305 57.7874 404.39 57.7715C407.579 56.9421 407.021 51.3794 407.007 51.3222C406.99 51.1558 407.04 50.9897 407.144 50.8589C407.248 50.7281 407.399 50.643 407.564 50.6215C407.728 50.6084 407.89 50.6568 408.02 50.7574C408.15 50.8579 408.237 51.0032 408.265 51.1649C408.265 51.1649 409.152 57.1709 413.084 57.7572C413.215 57.7919 413.353 57.7889 413.482 57.7484C413.611 57.7079 413.726 57.6316 413.814 57.5284C415.244 55.9554 413.671 48.5623 412.384 44.2866C412.334 44.1273 412.35 43.955 412.428 43.8075C412.506 43.6601 412.639 43.5495 412.798 43.5001C412.878 43.476 412.962 43.468 413.045 43.4766C413.128 43.4852 413.208 43.5102 413.281 43.5501C413.354 43.59 413.419 43.6441 413.471 43.7091C413.523 43.7742 413.562 43.8489 413.585 43.9291C413.942 45.1303 417.017 55.7409 414.743 58.3578C414.572 58.5896 414.351 58.7796 414.095 58.9134C413.84 59.0472 413.558 59.1212 413.27 59.13Z" fill="#231F20"/>
<path d="M90.7904 254.168C88.6454 249.878 67.7102 213.856 64.4927 190.776C64.4927 190.776 64.1209 235.749 82.8253 258.901C101.53 282.053 90.7904 254.168 90.7904 254.168Z" fill="#D1D3D4"/>
<path d="M310.381 72.6006L303.174 75.7037V77.2767L312.912 74.4167L310.381 72.6006Z" fill="#231F20"/>
<path d="M303.174 77.9059C303.035 77.9069 302.899 77.8617 302.788 77.7772C302.711 77.7187 302.649 77.643 302.607 77.556C302.565 77.469 302.543 77.3733 302.545 77.2767V75.7037C302.543 75.5803 302.577 75.4589 302.643 75.3546C302.709 75.2504 302.804 75.1679 302.917 75.1174L310.067 72.0143C310.167 71.9722 310.276 71.9566 310.384 71.9692C310.491 71.9817 310.594 72.0219 310.682 72.0858L313.213 73.9162C313.306 73.986 313.379 74.0805 313.422 74.1891C313.465 74.2977 313.476 74.4161 313.456 74.5311C313.438 74.6484 313.387 74.758 313.308 74.8468C313.23 74.9356 313.127 74.9998 313.013 75.0316L303.274 77.8916L303.174 77.9059ZM303.803 76.1184V76.433L311.497 74.1736L310.31 73.3156L303.803 76.1184Z" fill="#231F20"/>
<path d="M308.022 78.5922C306.935 77.248 305.162 74.7884 303.174 75.7322C302.632 75.987 302.168 76.3819 301.83 76.8762C301.162 77.8906 300.815 79.0829 300.836 80.2973C300.856 81.5117 301.243 82.6918 301.944 83.683C303.017 85.5134 306.234 88.1732 308.093 85.6707" fill="white"/>
<path d="M306.192 87.3153H306.006C305.042 87.1228 304.131 86.7274 303.332 86.1554C302.533 85.5834 301.865 84.8478 301.372 83.9977C300.613 82.8853 300.206 81.5696 300.206 80.2225C300.206 78.8753 300.613 77.5596 301.372 76.4473C301.778 75.8657 302.331 75.4019 302.974 75.1031C305.319 74.0592 307.264 76.433 308.337 77.8487L308.594 78.1776C308.703 78.3134 308.755 78.4862 308.739 78.6596C308.723 78.833 308.64 78.9934 308.508 79.1071C308.441 79.1619 308.363 79.2029 308.28 79.2276C308.196 79.2523 308.109 79.2602 308.023 79.2509C307.936 79.2416 307.852 79.2152 307.776 79.1733C307.7 79.1315 307.633 79.0749 307.579 79.007L307.307 78.6638C306.049 77.0765 304.804 75.718 303.503 76.29C303.066 76.5068 302.692 76.8316 302.416 77.2338C301.829 78.1479 301.53 79.2176 301.558 80.3039C301.586 81.3902 301.94 82.4429 302.574 83.3256C302.951 83.9951 303.464 84.5787 304.08 85.0391C304.695 85.4995 305.4 85.8266 306.149 85.9997C306.431 86.0007 306.709 85.9321 306.959 85.7999C307.208 85.6677 307.421 85.476 307.579 85.2418C307.686 85.1065 307.842 85.0187 308.013 84.9973C308.184 84.9759 308.357 85.0226 308.494 85.1274C308.562 85.1792 308.62 85.2443 308.663 85.3187C308.706 85.3932 308.734 85.4755 308.744 85.5608C308.755 85.6461 308.748 85.7327 308.725 85.8154C308.702 85.8982 308.662 85.9754 308.608 86.0426C308.336 86.4315 307.974 86.7498 307.554 86.9711C307.134 87.1925 306.667 87.3104 306.192 87.3153Z" fill="#231F20"/>
<path d="M315.091 75.4949C317.494 75.2394 319.283 73.5361 319.087 71.6905C318.891 69.845 316.784 68.556 314.381 68.8116C311.977 69.0671 310.188 70.7704 310.385 72.6159C310.581 74.4615 312.688 75.7504 315.091 75.4949Z" fill="white"/>
<path d="M314.499 76.1755C313.415 76.2701 312.334 75.9667 311.457 75.3218C310.581 74.677 309.97 73.735 309.737 72.672C309.494 70.4698 311.553 68.382 314.313 68.1389C315.559 67.9948 316.817 68.2555 317.903 68.8825C318.4 69.1595 318.825 69.5499 319.143 70.022C319.461 70.4941 319.663 71.0346 319.733 71.5995C319.976 73.8017 317.917 75.8895 315.157 76.1326C314.939 76.1612 314.719 76.1755 314.499 76.1755ZM314.985 69.4116H314.442C312.411 69.6261 310.881 71.0132 311.039 72.5004C311.196 73.9876 312.969 75.0172 315.028 74.8027C317.087 74.5882 318.603 73.2011 318.446 71.7139C318.387 71.3487 318.246 71.0018 318.033 70.6994C317.82 70.3971 317.54 70.1474 317.216 69.9693C316.537 69.5839 315.766 69.3911 314.985 69.4116Z" fill="#231F20"/>
<path d="M324.047 75.0656C326.45 74.81 328.24 73.1067 328.043 71.2612C327.847 69.4157 325.74 68.1267 323.337 68.3823C320.933 68.6378 319.144 70.3411 319.341 72.1866C319.537 74.0322 321.644 75.3211 324.047 75.0656Z" fill="white"/>
<path d="M323.48 75.7466C322.396 75.8412 321.315 75.5377 320.439 74.8929C319.562 74.2481 318.951 73.3061 318.719 72.2431C318.49 70.0409 320.549 67.9531 323.295 67.71C326.04 67.4669 328.5 68.9684 328.729 71.1706C328.957 73.3728 326.912 75.4606 324.153 75.6894L323.48 75.7466ZM323.981 68.9827H323.438C321.393 69.1972 319.863 70.5843 320.02 72.0715C320.177 73.5587 321.979 74.5883 324.01 74.3738C326.04 74.1593 327.585 72.7722 327.427 71.285C327.223 70.5465 326.759 69.9067 326.121 69.4836C325.482 69.0605 324.712 68.8826 323.952 68.9827H323.981Z" fill="#231F20"/>
<path d="M144.33 227.384C147.97 227.384 150.922 224.432 150.922 220.792C150.922 217.151 147.97 214.199 144.33 214.199C140.689 214.199 137.737 217.151 137.737 220.792C137.737 224.432 140.689 227.384 144.33 227.384Z" fill="white"/>
<path d="M144.33 228.099C142.881 228.102 141.464 227.675 140.258 226.872C139.053 226.069 138.112 224.927 137.556 223.589C136.999 222.251 136.852 220.779 137.133 219.358C137.414 217.936 138.11 216.63 139.134 215.605C140.157 214.58 141.461 213.881 142.882 213.597C144.303 213.314 145.776 213.458 147.114 214.012C148.453 214.565 149.597 215.504 150.402 216.708C151.208 217.912 151.637 219.328 151.637 220.777C151.637 222.716 150.868 224.577 149.498 225.949C148.128 227.322 146.269 228.095 144.33 228.099ZM144.33 214.9C143.164 214.897 142.023 215.241 141.051 215.887C140.08 216.533 139.323 217.453 138.875 218.53C138.428 219.607 138.31 220.793 138.537 221.937C138.764 223.082 139.325 224.133 140.15 224.957C140.975 225.782 142.026 226.344 143.17 226.571C144.314 226.797 145.5 226.68 146.577 226.232C147.654 225.784 148.574 225.027 149.22 224.056C149.867 223.085 150.21 221.944 150.207 220.777C150.204 219.22 149.583 217.727 148.482 216.625C147.38 215.524 145.888 214.904 144.33 214.9Z" fill="#D1D3D4"/>
<path d="M392.763 142.971C394.588 142.971 396.067 141.492 396.067 139.668C396.067 137.843 394.588 136.364 392.763 136.364C390.939 136.364 389.46 137.843 389.46 139.668C389.46 141.492 390.939 142.971 392.763 142.971Z" fill="white"/>
<path d="M392.763 143.686C391.968 143.689 391.189 143.455 390.527 143.016C389.864 142.576 389.347 141.949 389.04 141.215C388.734 140.481 388.653 139.673 388.806 138.892C388.959 138.112 389.341 137.395 389.902 136.831C390.464 136.268 391.18 135.884 391.96 135.728C392.739 135.571 393.548 135.65 394.283 135.954C395.018 136.258 395.647 136.773 396.089 137.434C396.531 138.095 396.767 138.872 396.767 139.668C396.767 140.731 396.346 141.751 395.595 142.504C394.845 143.257 393.826 143.682 392.763 143.686ZM392.763 137.079C392.251 137.076 391.749 137.226 391.321 137.509C390.894 137.791 390.56 138.194 390.362 138.667C390.164 139.14 390.11 139.661 390.208 140.164C390.307 140.667 390.552 141.129 390.914 141.493C391.275 141.856 391.736 142.104 392.239 142.205C392.741 142.306 393.262 142.256 393.736 142.06C394.21 141.865 394.615 141.533 394.9 141.107C395.185 140.681 395.337 140.18 395.337 139.668C395.337 138.984 395.066 138.327 394.584 137.842C394.102 137.357 393.447 137.083 392.763 137.079Z" fill="#D1D3D4"/>
<path d="M439.51 132.003C443.151 132.003 446.103 129.051 446.103 125.411C446.103 121.77 443.151 118.818 439.51 118.818C435.869 118.818 432.918 121.77 432.918 125.411C432.918 129.051 435.869 132.003 439.51 132.003Z" fill="#D1D3D4"/>
<path d="M450.436 370.284C470.946 370.284 487.573 353.657 487.573 333.147C487.573 312.636 470.946 296.01 450.436 296.01C429.926 296.01 413.299 312.636 413.299 333.147C413.299 353.657 429.926 370.284 450.436 370.284Z" fill="white"/>
<path d="M450.45 370.999C443.396 370.998 436.483 369.027 430.49 365.308C424.497 361.588 419.662 356.268 416.531 349.947C413.401 343.626 412.098 336.556 412.771 329.535C413.444 322.513 416.066 315.82 420.34 310.209C424.615 304.598 430.372 300.293 436.963 297.779C443.553 295.266 450.715 294.644 457.64 295.983C464.565 297.323 470.979 300.571 476.156 305.362C481.334 310.152 485.07 316.293 486.943 323.094C488.488 328.713 488.716 334.612 487.607 340.334C486.499 346.055 484.085 351.443 480.554 356.079C477.022 360.714 472.469 364.472 467.247 367.06C462.026 369.648 456.277 370.996 450.45 370.999ZM450.45 296.71C442.826 296.708 435.393 299.098 429.199 303.542C423.004 307.987 418.36 314.262 415.92 321.485C413.48 328.708 413.367 336.515 415.598 343.805C417.828 351.096 422.289 357.503 428.352 362.125C434.416 366.747 441.776 369.35 449.397 369.568C457.018 369.786 464.515 367.608 470.833 363.341C477.151 359.074 481.972 352.933 484.616 345.782C487.259 338.631 487.593 330.831 485.571 323.48C483.445 315.791 478.859 309.01 472.513 304.176C466.168 299.341 458.413 296.719 450.436 296.71H450.45Z" fill="#D1D3D4"/>
<path d="M405.719 353.467C399.084 353.467 393.078 352.509 392.163 349.177C390.69 343.7 404.575 336.55 413.027 332.746C413.201 332.67 413.399 332.667 413.576 332.737C413.753 332.806 413.895 332.944 413.971 333.118C414.046 333.292 414.05 333.49 413.98 333.667C413.91 333.844 413.773 333.986 413.599 334.062C397.754 341.112 392.849 346.288 393.579 348.791C394.308 351.293 401.143 353.252 418.346 351.193C442.07 347.996 465.258 341.628 487.287 332.26C503.117 325.239 508.022 320.048 507.307 317.531C506.592 315.014 499.756 313.084 482.539 315.143C482.349 315.166 482.159 315.112 482.008 314.994C481.858 314.876 481.761 314.703 481.738 314.514C481.715 314.324 481.769 314.133 481.887 313.983C482.005 313.833 482.178 313.736 482.367 313.713C491.548 312.612 507.164 311.611 508.679 317.145C510.195 322.679 496.281 329.815 487.844 333.547C465.677 343.01 442.334 349.436 418.446 352.652C414.223 353.168 409.974 353.44 405.719 353.467Z" fill="#D1D3D4"/>
<path d="M374.96 323.38C374.77 323.38 374.589 323.304 374.455 323.17C374.32 323.036 374.245 322.854 374.245 322.665V314.242C374.245 314.052 374.32 313.87 374.455 313.736C374.589 313.602 374.77 313.527 374.96 313.527C375.15 313.527 375.332 313.602 375.466 313.736C375.6 313.87 375.675 314.052 375.675 314.242V322.665C375.675 322.854 375.6 323.036 375.466 323.17C375.332 323.304 375.15 323.38 374.96 323.38Z" fill="#D1D3D4"/>
<path d="M379.25 319.161H370.827C370.638 319.161 370.456 319.086 370.322 318.952C370.188 318.818 370.112 318.636 370.112 318.446C370.116 318.258 370.192 318.078 370.326 317.945C370.459 317.811 370.639 317.735 370.827 317.731H379.25C379.44 317.731 379.622 317.807 379.756 317.941C379.89 318.075 379.965 318.257 379.965 318.446C379.965 318.636 379.89 318.818 379.756 318.952C379.622 319.086 379.44 319.161 379.25 319.161Z" fill="#D1D3D4"/>
<path d="M472.429 152.795C472.239 152.795 472.057 152.72 471.923 152.586C471.789 152.451 471.714 152.27 471.714 152.08V143.657C471.714 143.468 471.789 143.286 471.923 143.152C472.057 143.018 472.239 142.942 472.429 142.942C472.618 142.942 472.8 143.018 472.934 143.152C473.069 143.286 473.144 143.468 473.144 143.657V152.08C473.144 152.27 473.069 152.451 472.934 152.586C472.8 152.72 472.618 152.795 472.429 152.795Z" fill="#D1D3D4"/>
<path d="M476.647 148.591H468.225C468.035 148.591 467.853 148.515 467.719 148.381C467.585 148.247 467.51 148.065 467.51 147.876C467.51 147.686 467.585 147.504 467.719 147.37C467.853 147.236 468.035 147.161 468.225 147.161H476.647C476.837 147.161 477.019 147.236 477.153 147.37C477.287 147.504 477.362 147.686 477.362 147.876C477.359 148.064 477.282 148.244 477.149 148.377C477.016 148.511 476.836 148.587 476.647 148.591Z" fill="#D1D3D4"/>
<path d="M117.288 337.422C117.099 337.422 116.917 337.347 116.783 337.213C116.649 337.079 116.573 336.897 116.573 336.707V328.285C116.573 328.095 116.649 327.913 116.783 327.779C116.917 327.645 117.099 327.57 117.288 327.57C117.478 327.57 117.66 327.645 117.794 327.779C117.928 327.913 118.003 328.095 118.003 328.285V336.707C118.003 336.897 117.928 337.079 117.794 337.213C117.66 337.347 117.478 337.422 117.288 337.422Z" fill="#D1D3D4"/>
<path d="M121.492 333.218H113.069C112.881 333.214 112.701 333.138 112.568 333.005C112.435 332.871 112.358 332.692 112.354 332.503C112.354 332.313 112.43 332.132 112.564 331.998C112.698 331.863 112.88 331.788 113.069 331.788H121.492C121.682 331.788 121.864 331.863 121.998 331.998C122.132 332.132 122.207 332.313 122.207 332.503C122.207 332.693 122.132 332.875 121.998 333.009C121.864 333.143 121.682 333.218 121.492 333.218Z" fill="#D1D3D4"/>
<path d="M202.188 157.013C201.998 157.013 201.816 156.938 201.682 156.804C201.548 156.67 201.473 156.488 201.473 156.298V147.876C201.473 147.686 201.548 147.504 201.682 147.37C201.816 147.236 201.998 147.161 202.188 147.161C202.377 147.161 202.559 147.236 202.693 147.37C202.827 147.504 202.903 147.686 202.903 147.876V156.37C202.885 156.547 202.802 156.711 202.67 156.83C202.537 156.949 202.366 157.014 202.188 157.013Z" fill="#D1D3D4"/>
<path d="M206.392 152.795H197.969C197.779 152.795 197.597 152.72 197.463 152.586C197.329 152.451 197.254 152.27 197.254 152.08C197.254 151.89 197.329 151.708 197.463 151.574C197.597 151.44 197.779 151.365 197.969 151.365H206.392C206.581 151.365 206.763 151.44 206.897 151.574C207.031 151.708 207.107 151.89 207.107 152.08C207.107 152.27 207.031 152.451 206.897 152.586C206.763 152.72 206.581 152.795 206.392 152.795Z" fill="#D1D3D4"/>
</svg>
