<svg width="142" height="55" viewBox="0 0 142 55" fill="none" xmlns="http://www.w3.org/2000/svg">
<path d="M15 26.952V32.3C15 33.42 15 33.98 15.218 34.409C15.41 34.785 15.715 35.091 16.092 35.282C16.519 35.5 17.079 35.5 18.197 35.5H27.803C28.921 35.5 29.48 35.5 29.907 35.282C30.2835 35.0907 30.5898 34.7851 30.782 34.409C31 33.981 31 33.422 31 32.304V26.952C31 26.418 31 26.151 30.935 25.902C30.8775 25.6819 30.7828 25.4732 30.655 25.285C30.51 25.072 30.31 24.895 29.907 24.544L25.107 20.344C24.361 19.691 23.987 19.364 23.567 19.24C23.197 19.13 22.803 19.13 22.432 19.24C22.012 19.364 21.64 19.69 20.894 20.342L16.093 24.544C15.691 24.896 15.49 25.072 15.346 25.284C15.2178 25.4725 15.1228 25.6815 15.065 25.902C15 26.15 15 26.418 15 26.952Z" stroke="black" stroke-width="3" stroke-linecap="round" stroke-linejoin="round"/>
<path d="M54.6506 38.2983C53.0795 38.2983 51.7273 37.9801 50.5938 37.3438C49.4669 36.7008 48.5985 35.7926 47.9886 34.6193C47.3788 33.4394 47.0739 32.044 47.0739 30.4332C47.0739 28.8622 47.3788 27.4834 47.9886 26.2969C48.5985 25.1103 49.4569 24.1856 50.5639 23.5227C51.6776 22.8598 52.9834 22.5284 54.4815 22.5284C55.4891 22.5284 56.4271 22.6908 57.2955 23.0156C58.1705 23.3338 58.9328 23.8144 59.5824 24.4574C60.2386 25.1004 60.7491 25.9091 61.1136 26.8835C61.4782 27.8513 61.6605 28.9848 61.6605 30.2841V31.4474H48.7642V28.8224H57.6733C57.6733 28.2126 57.5407 27.6723 57.2756 27.2017C57.0104 26.7311 56.6425 26.3632 56.1719 26.098C55.7079 25.8262 55.1676 25.6903 54.5511 25.6903C53.9081 25.6903 53.3381 25.8395 52.8409 26.1378C52.3504 26.4295 51.9659 26.8239 51.6875 27.321C51.4091 27.8116 51.2666 28.3584 51.2599 28.9616V31.4574C51.2599 32.2131 51.3991 32.866 51.6776 33.4162C51.9626 33.9664 52.3636 34.3906 52.8807 34.6889C53.3977 34.9872 54.0109 35.1364 54.7202 35.1364C55.1908 35.1364 55.6217 35.0701 56.0128 34.9375C56.4039 34.8049 56.7386 34.6061 57.017 34.3409C57.2955 34.0758 57.5076 33.7509 57.6534 33.3665L61.571 33.625C61.3722 34.5663 60.9645 35.3883 60.348 36.0909C59.7382 36.7869 58.9493 37.3305 57.9815 37.7216C57.0204 38.1061 55.91 38.2983 54.6506 38.2983ZM64.4247 38V22.7273H68.5312V25.392H68.6903C68.9688 24.4441 69.4361 23.7282 70.0923 23.2443C70.7486 22.7538 71.5043 22.5085 72.3594 22.5085C72.5715 22.5085 72.8002 22.5218 73.0455 22.5483C73.2907 22.5748 73.5062 22.6113 73.6918 22.6577V26.4162C73.4929 26.3565 73.2178 26.3035 72.8665 26.2571C72.5152 26.2107 72.1937 26.1875 71.902 26.1875C71.2789 26.1875 70.7221 26.3234 70.2315 26.5952C69.7476 26.8603 69.3632 27.2315 69.0781 27.7088C68.7997 28.1861 68.6605 28.7363 68.6605 29.3594V38H64.4247ZM90.5852 22.7273L85.2457 38H80.473L75.1335 22.7273H79.608L82.7798 33.6548H82.9389L86.1009 22.7273H90.5852ZM96.6978 38.2884C95.7234 38.2884 94.855 38.1193 94.0927 37.7812C93.3304 37.4366 92.7272 36.9295 92.283 36.2599C91.8455 35.5838 91.6268 34.742 91.6268 33.7344C91.6268 32.8859 91.7826 32.1733 92.0941 31.5966C92.4057 31.0199 92.8299 30.5559 93.3668 30.2045C93.9038 29.8532 94.5136 29.5881 95.1964 29.4091C95.8858 29.2301 96.6083 29.1042 97.364 29.0312C98.2522 28.9384 98.9682 28.8523 99.5117 28.7727C100.055 28.6866 100.45 28.5606 100.695 28.3949C100.94 28.2292 101.063 27.9839 101.063 27.6591V27.5994C101.063 26.9697 100.864 26.4825 100.466 26.1378C100.075 25.7931 99.5183 25.6207 98.7958 25.6207C98.0335 25.6207 97.427 25.7898 96.9762 26.1278C96.5254 26.4593 96.2272 26.8769 96.0813 27.3807L92.1637 27.0625C92.3626 26.1345 92.7537 25.3324 93.337 24.6562C93.9203 23.9735 94.6727 23.4498 95.5941 23.0852C96.5221 22.714 97.596 22.5284 98.8157 22.5284C99.6642 22.5284 100.476 22.6278 101.252 22.8267C102.034 23.0256 102.727 23.3338 103.33 23.7514C103.94 24.169 104.42 24.706 104.772 25.3622C105.123 26.0118 105.299 26.7907 105.299 27.6989V38H101.282V35.8821H101.162C100.917 36.3594 100.589 36.7803 100.178 37.1449C99.7669 37.5028 99.2731 37.7846 98.6964 37.9901C98.1197 38.1889 97.4535 38.2884 96.6978 38.2884ZM97.9109 35.3651C98.534 35.3651 99.0842 35.2424 99.5614 34.9972C100.039 34.7453 100.413 34.4072 100.685 33.983C100.957 33.5587 101.093 33.0781 101.093 32.5412V30.9205C100.96 31.0066 100.778 31.0862 100.546 31.1591C100.32 31.2254 100.065 31.2884 99.7802 31.348C99.4951 31.401 99.2101 31.4508 98.9251 31.4972C98.64 31.5369 98.3815 31.5734 98.1495 31.6065C97.6523 31.6795 97.2182 31.7955 96.8469 31.9545C96.4757 32.1136 96.1874 32.3291 95.9819 32.6009C95.7764 32.866 95.6737 33.1974 95.6737 33.5952C95.6737 34.1719 95.8825 34.6127 96.3001 34.9176C96.7243 35.2159 97.2612 35.3651 97.9109 35.3651ZM121.292 27.0824L117.414 27.321C117.348 26.9896 117.206 26.6913 116.987 26.4261C116.768 26.1544 116.48 25.9389 116.122 25.7798C115.77 25.6141 115.35 25.5312 114.859 25.5312C114.203 25.5312 113.649 25.6705 113.199 25.9489C112.748 26.2206 112.522 26.5852 112.522 27.0426C112.522 27.4072 112.668 27.7154 112.96 27.9673C113.252 28.2192 113.752 28.4214 114.461 28.5739L117.225 29.1307C118.71 29.4356 119.817 29.9261 120.547 30.6023C121.276 31.2784 121.64 32.1667 121.64 33.267C121.64 34.268 121.345 35.1463 120.755 35.902C120.172 36.6577 119.37 37.2476 118.349 37.6719C117.335 38.0895 116.165 38.2983 114.839 38.2983C112.817 38.2983 111.207 37.8774 110.007 37.0355C108.814 36.187 108.114 35.0336 107.909 33.5753L112.075 33.3565C112.201 33.973 112.506 34.4437 112.99 34.7685C113.474 35.0866 114.093 35.2457 114.849 35.2457C115.592 35.2457 116.188 35.1032 116.639 34.8182C117.096 34.5265 117.328 34.152 117.335 33.6946C117.328 33.3101 117.166 32.9953 116.848 32.75C116.529 32.4981 116.039 32.3059 115.376 32.1733L112.731 31.6463C111.24 31.348 110.129 30.831 109.4 30.0952C108.678 29.3594 108.316 28.4214 108.316 27.2812C108.316 26.3002 108.582 25.455 109.112 24.7457C109.649 24.0365 110.401 23.4896 111.369 23.1051C112.343 22.7206 113.484 22.5284 114.789 22.5284C116.718 22.5284 118.236 22.9361 119.343 23.7514C120.457 24.5668 121.107 25.6771 121.292 27.0824ZM124.308 38V22.7273H128.543V38H124.308ZM126.435 20.7585C125.806 20.7585 125.265 20.5497 124.815 20.1321C124.371 19.7079 124.148 19.2008 124.148 18.6108C124.148 18.0275 124.371 17.527 124.815 17.1094C125.265 16.6851 125.806 16.473 126.435 16.473C127.065 16.473 127.602 16.6851 128.046 17.1094C128.497 17.527 128.722 18.0275 128.722 18.6108C128.722 19.2008 128.497 19.7079 128.046 20.1321C127.602 20.5497 127.065 20.7585 126.435 20.7585Z" fill="#111827"/>
</svg>
